<svg width="502" height="454" viewBox="0 0 502 454" fill="none" xmlns="http://www.w3.org/2000/svg">
<g clip-path="url(#clip0_406_9048)">
<path fill-rule="evenodd" clip-rule="evenodd" d="M284.362 434.741C160.233 434.741 59.6074 334.188 59.6074 210.148C59.6074 160.487 75.7372 114.59 103.046 77.4042C66.7148 117.301 44.5681 170.324 44.5681 228.516C44.5681 352.556 145.193 453.11 269.322 453.11C343.754 453.11 409.735 416.954 450.637 361.26C409.527 406.404 350.256 434.741 284.362 434.741Z" fill="#FAB848"/>
<path d="M284.362 434.428C222.383 434.428 166.275 409.325 125.658 368.738C85.0419 328.15 59.9211 272.082 59.9211 210.148C59.9213 160.555 76.0281 114.724 103.299 77.5896L102.814 77.1932C66.4326 117.144 44.2542 170.243 44.2545 228.516C44.2547 352.729 145.02 453.423 269.323 453.423C343.857 453.423 409.931 417.217 450.89 361.445L450.405 361.049C409.351 406.131 350.165 434.428 284.362 434.428V435.055C350.347 435.055 409.702 406.678 450.869 361.471L450.637 361.26L450.385 361.074C409.538 416.692 343.651 452.796 269.323 452.796C207.344 452.796 151.235 427.693 110.619 387.106C70.0027 346.518 44.8819 290.45 44.8819 228.516C44.8821 170.403 66.9973 117.456 103.278 77.6149L103.046 77.4038L102.794 77.2183C75.4466 114.456 59.2941 160.418 59.2943 210.147C59.2945 334.36 160.061 435.054 284.362 435.054V434.428H284.362Z" fill="#663333"/>
<path fill-rule="evenodd" clip-rule="evenodd" d="M97.0316 240.668C107.109 234.854 113.366 224.964 114.918 214.285C104.886 210.289 93.1874 210.757 83.1095 216.572C73.0307 222.386 66.7755 232.276 65.2227 242.955C75.2543 246.952 86.9538 246.483 97.0316 240.668Z" fill="#FAB848"/>
<path d="M97.1883 240.94C107.352 235.075 113.663 225.099 115.229 214.33L115.264 214.085L115.034 213.993C110.69 212.263 106.037 211.363 101.335 211.363C95.0862 211.363 88.7522 212.954 82.9527 216.3C72.7879 222.164 66.4777 232.14 64.9123 242.91L64.8768 243.155L65.1066 243.247C69.4499 244.977 74.1032 245.877 78.8045 245.877C85.0535 245.877 91.3884 244.286 97.1883 240.94L96.8747 240.397C91.1717 243.687 84.9473 245.25 78.8042 245.25C74.1833 245.25 69.6085 244.365 65.3386 242.664L65.2226 242.955L65.5329 243C67.073 232.412 73.2732 222.608 83.2661 216.843C88.9686 213.553 95.1924 211.99 101.335 211.99C105.956 211.99 110.532 212.875 114.802 214.576L114.918 214.285L114.608 214.24C113.068 224.828 106.867 234.632 96.8747 240.397L97.1883 240.94Z" fill="#663333"/>
<path fill-rule="evenodd" clip-rule="evenodd" d="M11.0109 230.906C2.78184 222.684 -0.6994 211.512 0.567018 200.796C11.292 199.531 22.4712 203.009 30.6999 211.232C38.9286 219.455 42.4103 230.626 41.1428 241.343C30.4185 242.609 19.2392 239.13 11.0109 230.906Z" fill="#FAB848"/>
<path d="M11.2328 230.685C4.15721 223.615 0.627669 214.349 0.627251 205.082C0.627251 203.663 0.711721 202.244 0.87857 200.833L0.567035 200.796L0.603834 201.107C2.01828 200.94 3.44047 200.856 4.86287 200.856C14.1347 200.857 23.4046 204.385 30.4783 211.454C37.5456 218.517 41.0826 227.769 41.0831 237.025C41.0831 238.455 40.9996 239.885 40.8315 241.306L41.1431 241.343L41.1063 241.032C39.6759 241.201 38.237 241.283 36.7979 241.283C27.5432 241.282 18.2938 237.741 11.2328 230.685L10.7893 231.128C17.9707 238.305 27.3841 241.91 36.7977 241.909C38.2608 241.909 39.7242 241.826 41.1797 241.654L41.4253 241.625L41.4544 241.379C41.6254 239.933 41.7101 238.479 41.7101 237.025C41.7105 227.61 38.1101 218.194 30.9216 211.01C23.7268 203.82 14.2925 200.229 4.86266 200.229C3.41559 200.229 1.96873 200.315 0.530236 200.485L0.284563 200.514L0.2555 200.759C0.0859334 202.195 3.6502e-08 203.638 3.6502e-08 205.082C-0.000418131 214.507 3.59206 223.937 10.7891 231.128L11.2328 230.685Z" fill="#663333"/>
<path fill-rule="evenodd" clip-rule="evenodd" d="M91.3757 207.344C101.677 204.587 109.56 197.316 113.469 188.231C105.538 182.317 95.0739 179.96 84.7726 182.718C74.4731 185.475 66.5888 192.747 62.6806 201.831C70.6107 207.745 81.076 210.102 91.3757 207.344Z" fill="#FAB848"/>
<path d="M91.4568 207.647C101.854 204.864 109.813 197.524 113.757 188.355L113.855 188.128L113.657 187.98C107.907 183.693 100.838 181.257 93.4562 181.257C90.5619 181.257 87.6197 181.631 84.6914 182.416C74.2962 185.198 66.3364 192.539 62.3924 201.707L62.2948 201.934L62.493 202.082C68.2424 206.37 75.3122 208.805 82.693 208.805C85.5872 208.805 88.529 208.431 91.4568 207.647L91.2945 207.041C88.4198 207.811 85.533 208.179 82.693 208.179C75.4508 208.179 68.5115 205.789 62.8681 201.58L62.6806 201.831L62.9687 201.955C66.8411 192.955 74.6502 185.753 84.8537 183.021C87.7288 182.251 90.6158 181.884 93.4562 181.884C100.699 181.884 107.638 184.274 113.282 188.482L113.469 188.231L113.181 188.107C109.308 197.108 101.5 204.309 91.2945 207.041L91.4568 207.647Z" fill="#663333"/>
<path fill-rule="evenodd" clip-rule="evenodd" d="M16.8084 185.047C11.4762 175.819 11.0467 165.107 14.7111 155.921C24.5027 157.343 33.5715 163.072 38.9038 172.3C44.2352 181.527 44.6653 192.24 41 201.425C31.2087 200.004 22.1401 194.275 16.8084 185.047Z" fill="#FAB848"/>
<path d="M17.08 184.89C14.0651 179.672 12.6328 173.978 12.6326 168.358C12.6326 164.13 13.4437 159.944 15.0024 156.037L14.7111 155.921L14.666 156.231C24.367 157.641 33.3495 163.314 38.6322 172.457C41.6465 177.674 43.0786 183.368 43.0788 188.988C43.0788 193.216 42.2677 197.402 40.7088 201.309L41.0001 201.425L41.0452 201.115C31.3444 199.706 22.3621 194.033 17.08 184.89L16.5368 185.204C21.9178 194.517 31.0728 200.301 40.9549 201.735L41.1997 201.771L41.2913 201.541C42.8795 197.561 43.7058 193.296 43.7058 188.988C43.706 183.262 42.2456 177.457 39.1752 172.143C33.7934 162.829 24.6382 157.046 14.7561 155.611L14.5112 155.575L14.4197 155.805C12.8317 159.785 12.0054 164.05 12.0054 168.358C12.0052 174.084 13.4656 179.889 16.5368 185.204L17.08 184.89Z" fill="#663333"/>
<path fill-rule="evenodd" clip-rule="evenodd" d="M92.965 173.388C102.364 170.872 109.557 164.238 113.124 155.948C105.888 150.552 96.3387 148.401 86.9406 150.917C77.5417 153.434 70.3477 160.069 66.7816 168.357C74.0167 173.754 83.5675 175.905 92.965 173.388Z" fill="#FAB848"/>
<path d="M93.046 173.691C102.541 171.149 109.809 164.446 113.412 156.072L113.51 155.845L113.312 155.697C108.06 151.781 101.603 149.557 94.8621 149.557C92.2191 149.557 89.5328 149.898 86.8592 150.614C77.3645 153.156 70.0951 159.86 66.4932 168.233L66.3956 168.461L66.5938 168.608C71.8439 172.525 78.301 174.749 85.0419 174.749C87.6853 174.749 90.372 174.407 93.046 173.691L92.8838 173.085C90.2631 173.787 87.6312 174.122 85.0421 174.122C78.4398 174.122 72.1132 171.943 66.9691 168.106L66.7815 168.357L67.0697 168.481C70.6 160.276 77.7185 153.711 87.0217 151.219C89.6419 150.518 92.2734 150.183 94.8621 150.183C101.465 150.183 107.791 152.362 112.937 156.199L113.124 155.948L112.836 155.824C109.305 164.029 102.187 170.594 92.8838 173.085L93.046 173.691Z" fill="#663333"/>
<path fill-rule="evenodd" clip-rule="evenodd" d="M99.1355 143.271C107.731 140.97 114.31 134.904 117.572 127.324C110.954 122.388 102.221 120.422 93.6265 122.723C85.0317 125.024 78.4529 131.091 75.192 138.671C81.8081 143.606 90.5406 145.573 99.1355 143.271Z" fill="#FAB848"/>
<path d="M99.2167 143.574C107.908 141.248 114.562 135.112 117.86 127.447L117.957 127.22L117.759 127.072C112.952 123.488 107.042 121.452 100.872 121.452C98.4523 121.452 95.9928 121.765 93.5455 122.42C84.8547 124.747 78.2007 130.883 74.904 138.547L74.8064 138.774L75.0046 138.922C79.8102 142.507 85.7199 144.543 91.8902 144.543C94.3095 144.543 96.7689 144.229 99.2167 143.574L99.0544 142.969C96.66 143.61 94.2556 143.916 91.89 143.916C85.8581 143.916 80.0791 141.925 75.3795 138.42L75.1919 138.671L75.4801 138.795C78.7052 131.299 85.2085 125.301 93.7075 123.025C96.1018 122.384 98.5062 122.078 100.872 122.078C106.903 122.078 112.683 124.069 117.384 127.574L117.571 127.323L117.283 127.199C114.057 134.695 107.554 140.693 99.0542 142.968L99.2167 143.574Z" fill="#663333"/>
<path fill-rule="evenodd" clip-rule="evenodd" d="M43.4187 118.806C38.9694 111.107 38.61 102.168 41.6674 94.5033C49.839 95.6892 57.4062 100.469 61.8549 108.17C66.3048 115.871 66.6634 124.809 63.6051 132.474C55.4345 131.287 47.867 126.507 43.4187 118.806Z" fill="#FAB848"/>
<path d="M43.6903 118.649C41.179 114.303 39.9858 109.56 39.9858 104.879C39.9858 101.358 40.6609 97.8724 41.9589 94.6191L41.6676 94.5032L41.6225 94.8132C49.7033 95.9864 57.1844 100.711 61.5833 108.326C64.0946 112.673 65.2876 117.415 65.2878 122.095C65.2878 125.617 64.6123 129.103 63.3138 132.357L63.6051 132.473L63.6503 132.163C55.5702 130.989 48.0892 126.264 43.6903 118.649L43.1471 118.963C47.6449 126.749 55.2988 131.584 63.5599 132.783L63.8048 132.819L63.8964 132.589C65.224 129.261 65.9148 125.697 65.9148 122.095C65.9151 117.309 64.6938 112.456 62.1265 108.013C57.6284 100.226 49.9747 95.3916 41.7126 94.1929L41.4678 94.1574L41.3762 94.387C40.0491 97.7139 39.3585 101.278 39.3585 104.879C39.3583 109.667 40.5796 114.52 43.1471 118.963L43.6903 118.649Z" fill="#663333"/>
<path fill-rule="evenodd" clip-rule="evenodd" d="M149.564 50.5079L124.94 99.2749C120.075 95.7792 113.968 93.9675 107.536 94.5949C99.4277 95.3866 92.5739 99.8816 88.4907 106.24C93.7276 111.689 101.321 114.774 109.43 113.982C117.538 113.192 124.392 108.697 128.475 102.338L149.564 50.5079Z" fill="#FAB848"/>
<path d="M149.564 50.508L149.284 50.3668L124.66 99.1337L124.94 99.2749L125.123 99.0204C120.846 95.9468 115.618 94.1587 110.05 94.1587C109.209 94.1587 108.36 94.1995 107.505 94.283C99.2984 95.0841 92.3591 99.6351 88.2268 106.07L88.0932 106.279L88.2647 106.457C93.0127 111.398 99.6767 114.419 106.915 114.419C107.756 114.419 108.606 114.378 109.461 114.295C117.668 113.494 124.607 108.943 128.74 102.508L128.755 102.484L149.854 50.6265L149.284 50.3672L149.564 50.508L149.273 50.39L128.185 102.22L128.475 102.339L128.212 102.169C124.177 108.45 117.409 112.889 109.4 113.67C108.565 113.752 107.736 113.792 106.915 113.792C99.8529 113.792 93.3514 110.845 88.7171 106.022L88.4909 106.24L88.7547 106.409C92.789 100.128 99.5568 95.6888 107.566 94.9067C108.401 94.8252 109.229 94.7855 110.05 94.7855C115.483 94.7855 120.582 96.5295 124.756 99.5292L125.054 99.7431L149.844 50.649L149.564 50.508L149.273 50.39L149.564 50.508Z" fill="#663333"/>
<path fill-rule="evenodd" clip-rule="evenodd" d="M65.0932 84.5199C62.9852 76.6565 64.7877 68.6654 69.3094 62.6109L110.456 24.6653L73.4225 64.8414C78.4045 68.1633 82.2454 73.2423 83.9228 79.479C86.0317 87.3432 84.2292 95.3339 79.7067 101.388C72.7618 98.4044 67.2029 92.3846 65.0932 84.5199Z" fill="#FAB848"/>
<path d="M65.3962 84.4389C64.8097 82.2511 64.5297 80.054 64.5297 77.8923C64.5297 72.3785 66.3521 67.0946 69.5607 62.7981L69.3094 62.6107L69.522 62.8409L104.99 30.1325L72.9432 64.8983L73.2483 65.1018C78.1697 68.3835 81.9625 73.3983 83.6199 79.5598C84.2066 81.748 84.4868 83.9456 84.4868 86.1076C84.4868 91.6212 82.6644 96.9043 79.4552 101.201L79.7065 101.388L79.8303 101.1C72.9698 98.1523 67.4801 92.2079 65.3962 84.4389L64.7902 84.6012C66.9254 92.5614 72.5535 98.6566 79.5827 101.676L79.81 101.774L79.958 101.576C83.2463 97.1736 85.114 91.7599 85.114 86.1078C85.114 83.8919 84.8267 81.6393 84.2258 79.3977C82.5283 73.0856 78.6393 67.9427 73.5966 64.5807L73.4225 64.8414L73.6531 65.0537L110.686 24.8775L110.243 24.4348L69.0754 62.4003L69.0581 62.4235C65.7702 66.8259 63.9025 72.2402 63.9025 77.8925C63.9025 80.1081 64.1895 82.3602 64.7902 84.6012L65.3962 84.4389Z" fill="#663333"/>
<path fill-rule="evenodd" clip-rule="evenodd" d="M110.733 51.4559C115.601 45.6737 122.382 42.4479 129.372 41.9246L129.279 41.9317L166.843 0.788513L132.698 44.8066C133.349 51.7486 131.324 58.9377 126.477 64.6942C120.94 71.27 112.93 74.5398 104.953 74.2872C103.342 66.4764 105.196 58.0317 110.733 51.4559Z" fill="#FAB848"/>
<path d="M110.973 51.6577C115.785 45.9421 122.485 42.7548 129.395 42.2371L129.347 41.6122L129.255 41.6193L129.279 41.9319L129.51 42.1431L161.806 6.76988L132.374 44.7124L132.386 44.8356C132.464 45.6676 132.503 46.5033 132.503 47.3395C132.503 53.4003 130.447 59.4915 126.237 64.4922C120.96 70.7587 113.413 73.9866 105.812 73.987C105.529 73.987 105.246 73.9826 104.963 73.9736L104.953 74.2868L105.26 74.2235C104.893 72.4413 104.707 70.6256 104.707 68.8071C104.708 62.7476 106.762 56.6576 110.973 51.6577L110.493 51.2543C106.185 56.3698 104.08 62.607 104.08 68.8077C104.08 70.6687 104.27 72.5267 104.646 74.3507L104.696 74.5929L104.943 74.6006C105.233 74.6098 105.523 74.6144 105.812 74.6144C113.59 74.6148 121.317 71.3091 126.717 64.8962C131.025 59.7799 133.131 53.5417 133.13 47.3399C133.13 46.4841 133.09 45.6289 133.011 44.7775L132.698 44.8068L132.946 44.9988L167.091 0.980514L166.611 0.577271L128.513 42.3048L129.395 42.2371L129.348 41.6122C122.278 42.1412 115.417 45.4054 110.493 51.2543L110.973 51.6577Z" fill="#663333"/>
<path fill-rule="evenodd" clip-rule="evenodd" d="M27.9919 146.796C23.1267 138.376 22.7334 128.602 26.0781 120.22C35.0131 121.518 43.2876 126.744 48.1525 135.165C53.0175 143.585 53.4102 153.36 50.0663 161.741C41.1313 160.444 32.856 155.216 27.9919 146.796Z" fill="#FAB848"/>
<path d="M28.2635 146.64C25.5151 141.883 24.2089 136.691 24.2089 131.568C24.2089 127.713 24.9483 123.898 26.3694 120.336L26.0782 120.22L26.033 120.53C34.8774 121.815 43.0654 126.987 47.881 135.321C50.6294 140.078 51.9351 145.269 51.9351 150.393C51.9351 154.247 51.1958 158.063 49.7751 161.625L50.0663 161.741L50.1115 161.431C41.267 160.147 33.0783 154.974 28.2635 146.64L27.7203 146.953C32.634 155.459 40.9954 160.741 50.0212 162.051L50.266 162.087L50.3576 161.857C51.8078 158.222 52.5624 154.328 52.5624 150.394C52.5626 145.164 51.2286 139.862 48.4242 135.008C43.5097 126.502 35.1488 121.22 26.1231 119.91L25.8783 119.875L25.7867 120.105C24.3361 123.739 23.5815 127.634 23.5815 131.568C23.5813 136.798 24.9154 142.099 27.7201 146.953L28.2635 146.64Z" fill="#663333"/>
<path fill-rule="evenodd" clip-rule="evenodd" d="M278.762 389.275C376.18 389.275 455.152 310.359 455.152 213.011C455.152 174.036 442.493 138.017 421.061 108.832C449.573 140.143 466.955 181.757 466.955 227.427C466.955 324.775 387.983 403.691 290.565 403.691C232.15 403.691 180.368 375.316 148.267 331.606C180.531 367.036 227.048 389.275 278.762 389.275Z" fill="#FAB848"/>
<path d="M278.762 389.589C376.353 389.588 455.465 310.532 455.466 213.011C455.466 173.968 442.784 137.882 421.314 108.647L421.061 108.832L420.829 109.043C449.291 140.299 466.642 181.837 466.642 227.427C466.642 276.015 446.934 320.001 415.071 351.843C383.206 383.684 339.189 403.377 290.566 403.378C232.254 403.378 180.565 375.053 148.52 331.421L148.268 331.607L148.036 331.818C180.355 367.309 226.957 389.589 278.762 389.589V388.962C227.139 388.962 180.707 366.762 148.499 331.395L148.014 331.791C180.171 375.578 232.047 404.004 290.565 404.004C388.156 404.004 467.268 324.948 467.269 227.426C467.269 181.676 449.855 139.987 421.293 108.621L420.808 109.017C442.202 138.15 454.838 174.104 454.838 213.011C454.838 261.599 435.131 305.585 403.267 337.427C371.402 369.268 327.385 388.961 278.762 388.961V389.589H278.762Z" fill="#663333"/>
<path fill-rule="evenodd" clip-rule="evenodd" d="M425.781 236.963C417.872 232.4 412.963 224.638 411.744 216.257C419.617 213.121 428.799 213.489 436.708 218.052C444.617 222.616 449.527 230.378 450.746 238.759C442.873 241.895 433.691 241.527 425.781 236.963Z" fill="#FAB848"/>
<path d="M425.938 236.692C418.114 232.178 413.26 224.503 412.054 216.212L411.744 216.257L411.86 216.548C415.203 215.217 418.785 214.523 422.404 214.523C427.213 214.524 432.086 215.747 436.551 218.323C444.374 222.837 449.229 230.513 450.435 238.804L450.746 238.759L450.629 238.467C447.286 239.799 443.704 240.492 440.086 240.492C435.277 240.492 430.403 239.268 425.938 236.692L425.624 237.234C430.187 239.867 435.17 241.119 440.086 241.119C443.785 241.119 447.445 240.411 450.862 239.05L451.091 238.958L451.056 238.713C449.825 230.242 444.86 222.393 436.865 217.781C432.302 215.148 427.319 213.897 422.404 213.897C418.705 213.897 415.045 214.605 411.627 215.966L411.397 216.058L411.433 216.302C412.665 224.774 417.629 232.622 425.624 237.234L425.938 236.692Z" fill="#663333"/>
<path fill-rule="evenodd" clip-rule="evenodd" d="M493.291 229.303C499.75 222.85 502.482 214.082 501.488 205.672C493.071 204.679 484.297 207.408 477.839 213.862C471.381 220.316 468.649 229.082 469.643 237.493C478.06 238.487 486.833 235.757 493.291 229.303Z" fill="#FAB848"/>
<path d="M493.512 229.524C499.17 223.872 502 216.459 502 209.05C502 207.91 501.933 206.769 501.799 205.635L501.77 205.39L501.524 205.36C500.394 205.227 499.258 205.159 498.121 205.16C490.702 205.159 483.278 207.983 477.617 213.64C471.956 219.297 469.13 226.715 469.13 234.129C469.13 235.265 469.198 236.401 469.331 237.53L469.36 237.775L469.606 237.804C470.758 237.94 471.917 238.005 473.075 238.005C480.473 238.006 487.869 235.164 493.512 229.524L493.069 229.081C487.546 234.601 480.313 237.378 473.075 237.379C471.94 237.379 470.806 237.315 469.679 237.182L469.643 237.493L469.954 237.457C469.823 236.351 469.757 235.24 469.757 234.129C469.758 226.873 472.521 219.62 478.061 214.084C483.6 208.548 490.86 205.787 498.121 205.787C499.233 205.787 500.345 205.853 501.451 205.983L501.487 205.672L501.176 205.709C501.307 206.818 501.373 207.935 501.373 209.05C501.372 216.301 498.605 223.549 493.069 229.081L493.512 229.524Z" fill="#663333"/>
<path fill-rule="evenodd" clip-rule="evenodd" d="M430.22 210.811C422.136 208.647 415.949 202.941 412.881 195.811C419.105 191.17 427.318 189.32 435.402 191.484C443.486 193.648 449.673 199.354 452.74 206.484C446.517 211.125 438.303 212.975 430.22 210.811Z" fill="#FAB848"/>
<path d="M430.302 210.508C422.313 208.369 416.201 202.732 413.169 195.687L412.881 195.811L413.069 196.062C417.487 192.768 422.919 190.897 428.588 190.897C430.811 190.897 433.071 191.184 435.321 191.787C443.309 193.925 449.421 199.562 452.452 206.608L452.74 206.484L452.553 206.233C448.135 209.528 442.703 211.398 437.034 211.398C434.811 211.398 432.552 211.11 430.302 210.508L430.139 211.114C432.442 211.73 434.757 212.025 437.034 212.025C442.842 212.025 448.404 210.109 452.928 206.735L453.126 206.587L453.029 206.36C449.926 199.146 443.663 193.371 435.484 191.181C433.18 190.564 430.865 190.27 428.588 190.27C422.78 190.27 417.218 192.186 412.694 195.559L412.496 195.707L412.593 195.934C415.697 203.148 421.959 208.924 430.14 211.114L430.302 210.508Z" fill="#663333"/>
<path fill-rule="evenodd" clip-rule="evenodd" d="M488.742 193.311C492.927 186.07 493.264 177.662 490.388 170.454C482.703 171.569 475.586 176.065 471.402 183.307C467.217 190.549 466.879 198.957 469.755 206.165C477.44 205.049 484.557 200.554 488.742 193.311Z" fill="#FAB848"/>
<path d="M489.013 193.468C491.429 189.287 492.579 184.719 492.578 180.214C492.578 176.824 491.928 173.469 490.679 170.337L490.588 170.108L490.343 170.143C482.567 171.272 475.364 175.823 471.13 183.151C468.714 187.332 467.564 191.9 467.564 196.406C467.564 199.795 468.214 203.15 469.463 206.281L469.555 206.511L469.8 206.475C477.576 205.347 484.779 200.796 489.013 193.468L488.47 193.155C484.335 200.312 477.304 204.752 469.71 205.855L469.755 206.165L470.046 206.049C468.826 202.991 468.191 199.715 468.191 196.406C468.192 192.006 469.313 187.548 471.673 183.464C475.808 176.308 482.838 171.867 490.433 170.763L490.388 170.453L490.096 170.569C491.316 173.627 491.951 176.904 491.951 180.214C491.951 184.613 490.83 189.07 488.469 193.154L489.013 193.468Z" fill="#663333"/>
<path fill-rule="evenodd" clip-rule="evenodd" d="M428.973 184.162C421.596 182.187 415.951 176.98 413.151 170.474C418.831 166.239 426.325 164.552 433.701 166.526C441.077 168.501 446.723 173.708 449.522 180.213C443.843 184.449 436.348 186.136 428.973 184.162Z" fill="#FAB848"/>
<path d="M429.054 183.859C421.773 181.91 416.203 176.772 413.44 170.351L413.152 170.475L413.339 170.726C417.366 167.723 422.317 166.018 427.484 166.018C429.51 166.018 431.569 166.28 433.62 166.829C440.9 168.778 446.471 173.916 449.234 180.337L449.522 180.213L449.334 179.962C445.308 182.965 440.357 184.67 435.19 184.67C433.164 184.67 431.104 184.408 429.054 183.859L428.892 184.464C430.995 185.028 433.11 185.297 435.19 185.297C440.496 185.297 445.577 183.546 449.71 180.464L449.908 180.316L449.81 180.089C446.976 173.5 441.254 168.224 433.782 166.223C431.678 165.66 429.564 165.391 427.484 165.391C422.178 165.391 417.097 167.141 412.964 170.223L412.766 170.371L412.863 170.598C415.698 177.188 421.419 182.464 428.891 184.464L429.054 183.859Z" fill="#663333"/>
<path fill-rule="evenodd" clip-rule="evenodd" d="M424.13 160.525C417.385 158.72 412.222 153.958 409.662 148.009C414.855 144.136 421.71 142.593 428.454 144.398C435.199 146.205 440.362 150.966 442.922 156.915C437.729 160.788 430.875 162.332 424.13 160.525Z" fill="#FAB848"/>
<path d="M424.21 160.223C417.561 158.443 412.473 153.751 409.95 147.886L409.662 148.01L409.849 148.261C413.526 145.518 418.049 143.961 422.768 143.961C424.618 143.961 426.499 144.2 428.372 144.702C435.022 146.482 440.109 151.174 442.633 157.039L442.921 156.915L442.733 156.664C439.056 159.406 434.534 160.964 429.815 160.964C427.965 160.964 426.084 160.724 424.21 160.223L424.048 160.828C425.974 161.344 427.911 161.591 429.815 161.591C434.673 161.591 439.326 159.988 443.109 157.166L443.307 157.018L443.209 156.791C440.614 150.758 435.376 145.928 428.534 144.096C426.608 143.58 424.672 143.334 422.768 143.334C417.91 143.334 413.257 144.936 409.474 147.758L409.276 147.906L409.374 148.133C411.969 154.167 417.207 158.997 424.048 160.828L424.21 160.223Z" fill="#663333"/>
<path fill-rule="evenodd" clip-rule="evenodd" d="M467.858 141.325C471.349 135.282 471.632 128.267 469.232 122.252C462.818 123.183 456.879 126.934 453.388 132.977C449.896 139.02 449.615 146.035 452.015 152.051C458.427 151.12 464.366 147.369 467.858 141.325Z" fill="#FAB848"/>
<path d="M468.129 141.482C470.15 137.984 471.111 134.163 471.111 130.394C471.111 127.56 470.567 124.754 469.523 122.136L469.431 121.906L469.187 121.941C462.682 122.885 456.657 126.691 453.116 132.82C451.095 136.317 450.134 140.137 450.134 143.905C450.134 146.741 450.678 149.547 451.723 152.167L451.815 152.397L452.06 152.361C458.563 151.417 464.588 147.611 468.129 141.482L467.586 141.168C464.144 147.126 458.291 150.822 451.97 151.741L452.015 152.051L452.306 151.935C451.29 149.389 450.762 146.661 450.762 143.905C450.762 140.243 451.695 136.534 453.659 133.134C457.101 127.176 462.954 123.48 469.277 122.562L469.232 122.252L468.94 122.368C469.955 124.913 470.484 127.64 470.484 130.394C470.484 134.057 469.55 137.768 467.586 141.168L468.129 141.482Z" fill="#663333"/>
<path fill-rule="evenodd" clip-rule="evenodd" d="M384.554 87.7232L403.878 125.996C407.696 123.253 412.49 121.831 417.537 122.323C423.901 122.945 429.279 126.473 432.484 131.463C428.375 135.739 422.415 138.16 416.051 137.539C409.687 136.919 404.309 133.391 401.104 128.401L384.554 87.7232Z" fill="#FAB848"/>
<path d="M384.554 87.7233L384.274 87.8645L403.764 126.465L404.062 126.251C407.327 123.905 411.315 122.541 415.564 122.541C416.206 122.541 416.854 122.572 417.507 122.636C423.772 123.248 429.064 126.719 432.221 131.632L432.484 131.463L432.258 131.246C428.633 135.017 423.549 137.322 418.026 137.322C417.383 137.322 416.734 137.291 416.081 137.227C409.816 136.616 404.524 133.145 401.368 128.232L401.104 128.401L401.394 128.283L384.844 87.6056L384.554 87.7233L384.274 87.8645L384.554 87.7233L384.263 87.8413L400.824 128.545L400.84 128.57C404.094 133.637 409.558 137.221 416.02 137.851C416.694 137.916 417.363 137.949 418.026 137.948C423.725 137.948 428.972 135.57 432.71 131.679L432.882 131.501L432.748 131.293C429.494 126.226 424.03 122.642 417.568 122.011C416.895 121.945 416.226 121.913 415.564 121.913C411.18 121.913 407.063 123.321 403.695 125.742L403.878 125.996L404.158 125.855L384.834 87.5816L384.263 87.8409L384.554 87.7233Z" fill="#663333"/>
<path fill-rule="evenodd" clip-rule="evenodd" d="M450.847 114.417C452.501 108.245 451.087 101.974 447.538 97.2219L415.246 67.4419L444.31 98.9726C440.4 101.58 437.386 105.566 436.069 110.46C434.414 116.632 435.829 122.904 439.378 127.655C444.829 125.313 449.192 120.589 450.847 114.417Z" fill="#FAB848"/>
<path d="M451.15 114.498C451.623 112.733 451.849 110.959 451.849 109.214C451.849 104.763 450.378 100.501 447.79 97.0345L447.772 97.0113L415.458 67.2116L415.015 67.6543L444.079 99.185L444.31 98.9728L444.136 98.712C440.165 101.359 437.103 105.409 435.766 110.379C435.292 112.144 435.066 113.918 435.066 115.662C435.066 120.113 436.537 124.376 439.126 127.843L439.274 128.041L439.501 127.943C445.037 125.566 449.469 120.766 451.15 114.498L450.544 114.336C448.914 120.413 444.621 125.061 439.254 127.367L439.378 127.655L439.629 127.468C437.119 124.107 435.694 119.975 435.694 115.662C435.694 113.972 435.913 112.253 436.372 110.541C437.669 105.722 440.635 101.8 444.485 99.2333L444.79 99.0298L420.712 72.9086L447.326 97.4521L447.539 97.2219L447.288 97.4093C449.797 100.77 451.222 104.902 451.222 109.214C451.222 110.905 451.003 112.624 450.544 114.336L451.15 114.498Z" fill="#663333"/>
<path fill-rule="evenodd" clip-rule="evenodd" d="M415.028 88.4674C411.207 83.9297 405.885 81.3981 400.4 80.9875L400.474 80.9929L370.992 48.7032L397.79 83.249C397.278 88.697 398.868 94.3395 402.672 98.8572C407.017 104.018 413.304 106.584 419.564 106.386C420.829 100.256 419.374 93.6282 415.028 88.4674Z" fill="#FAB848"/>
<path d="M415.268 88.2655C411.391 83.6613 405.989 81.0912 400.424 80.675L400.377 81.3001L400.45 81.3055L401.237 81.3638L371.223 48.4922L370.744 48.8954L397.543 83.4413L397.791 83.2492L397.478 83.22C397.415 83.8913 397.383 84.5655 397.384 85.2404C397.383 90.1215 399.041 95.0323 402.432 99.0593C406.683 104.108 412.767 106.71 418.89 106.71C419.118 106.71 419.346 106.706 419.574 106.699L419.821 106.691L419.871 106.449C420.168 105.013 420.317 103.55 420.317 102.084C420.317 97.2027 418.66 92.2925 415.268 88.2655L414.788 88.6692C418.082 92.5805 419.689 97.3437 419.689 102.084C419.689 103.507 419.545 104.928 419.256 106.322L419.564 106.386L419.554 106.073C419.332 106.079 419.111 106.083 418.889 106.083C412.943 106.083 407.04 103.558 402.912 98.6556C399.618 94.7442 398.011 89.9805 398.01 85.2404C398.01 84.5852 398.041 83.9306 398.103 83.2787L398.114 83.1552L376.029 54.6858L400.242 81.2044L400.473 80.9932L400.497 80.6806L400.423 80.6752L400.377 81.3003C405.782 81.7052 411.023 84.1982 414.788 88.6694L415.268 88.2655Z" fill="#663333"/>
<path fill-rule="evenodd" clip-rule="evenodd" d="M479.965 163.292C483.783 156.684 484.091 149.012 481.466 142.435C474.454 143.453 467.961 147.555 464.142 154.163C460.324 160.771 460.017 168.443 462.64 175.021C469.653 174.003 476.147 169.9 479.965 163.292Z" fill="#FAB848"/>
<path d="M480.237 163.449C482.444 159.629 483.494 155.456 483.493 151.341C483.493 148.244 482.899 145.179 481.758 142.319L481.666 142.089L481.422 142.125C474.319 143.155 467.739 147.313 463.871 154.007C461.664 157.826 460.614 161.999 460.614 166.115C460.614 169.211 461.208 172.276 462.349 175.137L462.441 175.367L462.685 175.331C469.789 174.3 476.37 170.143 480.237 163.449L479.694 163.136C475.926 169.657 469.518 173.705 462.595 174.711L462.64 175.021L462.932 174.905C461.82 172.117 461.241 169.131 461.241 166.115C461.242 162.105 462.263 158.043 464.414 154.32C468.183 147.798 474.59 143.75 481.512 142.745L481.466 142.435L481.175 142.551C482.287 145.338 482.866 148.324 482.866 151.341C482.866 155.35 481.844 159.413 479.693 163.136L480.237 163.449Z" fill="#663333"/>
<path d="M295.124 289.385C289.782 243.234 289.017 196.593 288.493 150.095H190.556C190.524 152.967 190.494 155.858 190.464 158.76C190.619 158.734 190.774 158.709 190.929 158.68C192.246 158.431 192.805 160.445 191.485 160.695C191.138 160.76 190.791 160.814 190.443 160.864C189.949 210.821 189.645 264.803 182.746 315.082C199.461 317.136 219.758 317.547 230.613 317.547C246.438 317.547 282.333 316.675 297.939 311.105C296.899 303.878 295.963 296.634 295.124 289.385Z" fill="#E69D2A"/>
<path fill-rule="evenodd" clip-rule="evenodd" d="M269.423 112.404V133.094C269.488 138.758 269.549 144.425 269.612 150.095H311.875C311.811 144.425 311.751 138.758 311.686 133.094C311.686 124.006 311.686 114.918 311.686 105.831H269.423V112.077V112.404Z" fill="#F9A827"/>
<path fill-rule="evenodd" clip-rule="evenodd" d="M311.875 150.095H269.612C270.137 196.593 276.243 242.926 276.243 289.385C276.243 310.217 263.975 316.324 232.864 317.111C241.148 317.45 248.696 317.547 253.995 317.547C269.82 317.547 305.716 316.675 321.321 311.105C320.281 303.878 319.345 296.634 318.506 289.385C313.165 243.234 312.4 196.593 311.875 150.095Z" fill="#B57317"/>
<path fill-rule="evenodd" clip-rule="evenodd" d="M312.176 105.831L313.222 105.831L313.223 105.831H312.176Z" fill="#663333"/>
<path d="M214.244 149.87H195.398V317.547H214.244V149.87Z" fill="#D4891A"/>
<path d="M214.244 142.502H202.09V150.095H214.244V142.502Z" fill="#FAB848"/>
<path fill-rule="evenodd" clip-rule="evenodd" d="M335.966 146.409C353.444 144.561 360.911 146.295 362.95 168.835C364.34 184.202 367.313 234.63 360.243 247.731C357.102 253.551 351.213 259.567 344.431 263.495C337.106 267.736 328.122 269.931 321.956 267.177C319.33 236.718 318.375 194.833 317.867 163.951C321.081 154.297 325.304 147.536 335.966 146.409ZM311.686 111.545V112.077V112.405V133.094C311.75 138.758 311.811 144.425 311.875 150.095C312.399 196.593 313.164 243.234 318.506 289.384C319.345 296.634 320.28 303.878 321.321 311.107C305.717 316.675 269.821 317.547 253.995 317.547C238.169 317.547 202.273 316.675 186.669 311.107C193.292 265.114 195.011 221.373 195.757 176.628L195.758 176.561C195.904 167.786 196.014 158.972 196.114 150.095L196.258 137.203C197.244 138.55 198.328 139.818 199.52 140.921C202.149 143.354 205.44 145.044 209.118 144.628C219.768 143.422 221.683 127.084 222.339 118.924C222.434 117.744 223.041 113.099 224.687 112.736C227.005 112.225 230.153 115.665 231.068 117.51C231.278 117.934 231.455 118.377 231.589 118.831C231.79 119.514 231.895 120.229 231.862 120.942C231.685 124.757 230.924 128.654 230.224 132.404C229.165 138.067 228.161 143.665 227.447 149.388C226.416 157.64 225.681 167.645 227.292 175.866C228.358 181.312 231.1 187.912 237.492 188.482C245.265 189.176 249.589 180.331 251.409 174.151C254.262 164.467 254.107 153.202 252.581 143.31C251.349 135.328 250.681 124.043 254.357 116.533C255.324 114.558 257.576 111.202 260.222 111.581C263.993 112.119 264.933 118.516 264.904 121.395C264.856 126.07 264.1 130.594 263.61 135.224C263.127 139.787 262.839 145.136 266.337 148.681C268.326 150.697 270.96 151.522 273.743 151.518C275.991 151.515 278.121 150.819 279.8 149.291C283.266 146.136 283.106 141.203 282.592 136.948C282.12 133.039 281.312 129.183 280.958 125.255C280.705 122.445 280.449 113.729 283.11 111.839C283.452 111.596 283.885 111.545 284.295 111.545H311.686ZM190.261 178.399C189.648 215.49 188.043 252.658 183.868 288.735C182.014 304.755 180.051 317.398 178.905 324.372C177.761 331.348 177.433 332.656 179.124 334.563C190.915 347.866 317.075 347.866 328.866 334.563C330.557 332.656 330.23 331.348 329.084 324.372C328.343 319.859 327.259 312.971 326.084 304.331C327.128 302.863 327.834 299.521 329.801 296.088C335.756 285.698 347.546 281.898 356.709 275.391C364.723 269.701 374.612 266.079 377.977 256.918C381.733 246.692 380.169 153.307 377.067 142.364C374.922 134.804 372.311 124.501 358.356 126.033C351.267 126.811 340.167 127.023 329.867 128.611C326.125 129.189 317.445 127.556 317.445 123.875V110.063L318.269 108.515C321.7 102.071 323.71 94.0014 319.811 87.2837C318.725 85.414 317.098 83.6857 315.186 82.4292C316.452 76.0732 315.567 69.5864 312.075 63.7532C307.778 56.579 300.337 51.78 292.267 49.9276C283.447 47.9036 274.254 49.4075 266.536 54.1303C264.222 55.5458 262.286 57.2049 260.278 59.0047C259.764 59.4658 258.324 60.8176 257.707 61.0715C257.137 61.2917 253.341 60.5702 252.624 60.4723C246.767 59.6741 241.57 60.9254 236.58 64.0049C235.011 64.9735 233.575 66.0617 232.086 67.1389C231.758 67.3752 231.11 67.8573 230.595 68.1525C229.49 67.64 228.354 66.9632 227.307 66.4171C225.271 65.3551 223.134 64.3806 220.852 64.0066C218.158 63.5655 215.394 64.306 212.781 65.587L208.596 65.3507C208.572 65.3473 208.539 65.3358 208.517 65.3283C207.545 64.9949 205.765 63.6708 204.792 63.1132C201.772 61.3836 198.738 60.5293 195.238 60.583C189.414 60.6716 183.976 62.5741 180.335 67.3082C175.934 73.0303 175.702 80.9447 176.661 87.8015C176.804 88.8215 176.977 89.8376 177.172 90.8484C178.244 96.3536 179.253 102.247 178.436 107.855C178.109 110.088 177.543 112.3 176.963 114.479C176.1 117.724 175.202 120.95 174.393 124.21C173.258 128.786 174.881 132.162 177.568 133.537C176.762 136.853 175.871 140.049 175.447 141.645C174.141 146.551 173.288 152.227 172.914 157.274C172.406 164.111 172.409 174.496 179.096 178.536C183.667 181.296 186.875 179.881 190.261 178.399Z" fill="#663333"/>
<path fill-rule="evenodd" clip-rule="evenodd" d="M313.222 105.831C321.067 91.0964 311.481 85.2841 308.059 86.2406C317.684 63.2206 289.828 46.5794 269.521 59.0037C265.098 61.7094 262.572 65.3171 259.774 66.3993C257.422 67.309 254.901 66.5504 251.852 66.1344C239.029 64.3856 234.593 75.9012 229.189 73.7668C226.474 72.6933 222.953 70.1413 219.926 69.6453C214.147 68.6987 203.31 80.2065 199.569 84.062C201.443 79.9422 206.349 72.9129 208.273 71.0554C204.145 70.8229 201.987 66.1952 195.325 66.2963C181.508 66.5065 180.69 78.9828 182.786 89.7576C186.235 107.481 183.9 109.633 179.943 125.585C179.05 129.185 180.855 129.197 182.825 127.098C184.017 125.827 184.401 124.072 184.653 122.148C185.864 126.075 181.593 140.783 180.973 143.112C179.063 150.291 173.183 182.923 190.355 172.087L190.632 105.831C195.643 135.811 213.603 156.205 216.639 118.466C218.292 97.921 238.149 108.827 237.574 121.207C237.223 128.765 234.796 136.679 233.121 150.095C226.617 202.177 253.369 185.917 246.93 144.181C239.867 98.4093 270.869 97.3412 270.622 121.454C270.488 134.449 265.596 145.815 273.735 145.804C279.772 145.796 276.163 135.772 275.262 125.767C274.365 115.792 276.168 105.831 284.295 105.831C292.818 105.831 313.222 105.831 313.222 105.831Z" fill="white"/>
<path fill-rule="evenodd" clip-rule="evenodd" d="M196.114 150.095H204.127H204.132C204.155 148.051 204.178 146.004 204.2 143.954C202.482 143.284 200.909 142.206 199.52 140.92C198.328 139.818 197.244 138.55 196.257 137.203C196.21 141.516 196.163 145.813 196.114 150.095ZM214.026 142.671C213.998 145.151 213.97 147.625 213.943 150.095H227.36C227.389 149.858 227.417 149.622 227.447 149.388C228.161 143.665 229.165 138.067 230.224 132.405C230.924 128.654 231.685 124.758 231.862 120.942C231.895 120.229 231.791 119.515 231.589 118.831C231.455 118.377 231.278 117.935 231.068 117.51C230.153 115.665 227.005 112.225 224.687 112.736C223.041 113.1 222.434 117.744 222.339 118.924C221.8 125.629 220.41 137.855 214.026 142.671ZM254.357 116.533C250.682 124.044 251.35 135.328 252.581 143.31C252.921 145.515 253.194 147.787 253.379 150.095H268.137C267.494 149.711 266.891 149.242 266.337 148.681C262.839 145.136 263.127 139.788 263.61 135.224C264.1 130.595 264.856 126.071 264.904 121.395C264.933 118.517 263.994 112.119 260.222 111.581C257.576 111.203 255.324 114.558 254.357 116.533Z" fill="#FAB848"/>
<path fill-rule="evenodd" clip-rule="evenodd" d="M196.517 313.619C203.712 260.118 203.535 202.517 204.127 150.095H196.114C196.014 158.972 195.904 167.786 195.758 176.561C195.758 176.583 195.758 176.605 195.758 176.628C195.011 221.374 193.292 265.114 186.669 311.106C189.401 312.081 192.757 312.912 196.517 313.619ZM268.137 150.095H253.379C254.027 158.144 253.627 166.626 251.409 174.151C249.589 180.331 245.264 189.176 237.492 188.482C231.1 187.912 228.358 181.312 227.292 175.866C225.727 167.878 226.376 158.207 227.36 150.095H213.943H213.938C213.341 202.995 213.527 261.168 206.129 315.082C214.686 316.134 224.182 316.755 232.869 317.111C263.977 316.324 276.243 310.216 276.243 289.385C276.243 243.165 270.199 197.069 269.621 150.812C269.108 150.617 268.611 150.379 268.137 150.095Z" fill="#D4891A"/>
<path fill-rule="evenodd" clip-rule="evenodd" d="M209.015 112.655C217.4 103.083 224.289 92.8457 235.76 102.36C227.965 79.6845 212.807 101.528 209.015 112.655Z" fill="#663333"/>
<path fill-rule="evenodd" clip-rule="evenodd" d="M308.778 104.381C309.249 98.2722 310.572 92.4444 302.296 91.7808C314.314 86.7148 311.673 99.3047 308.778 104.381Z" fill="#663333"/>
<path fill-rule="evenodd" clip-rule="evenodd" d="M302.909 83.4739C300.278 68.5796 287.634 63.6646 276.164 73.1788C283.959 50.5038 307.706 65.9597 302.909 83.4739Z" fill="#663333"/>
</g>
<defs>
<clipPath id="clip0_406_9048">
<rect width="502" height="452.846" fill="white" transform="translate(0 0.577271)"/>
</clipPath>
</defs>
</svg>
